:SAMPLES-PER-SECOND 30
:FULLY-SPECIFIED
:DEGREES
427
root  -7.63053 22.3614 0.34011 139.507 86.1292 102.788
RightUpLeg  -35.6712 -3.37372 2.98267
RightLeg  105.546 3.77995 -10.6779
RightFoot  -28.7895 3.01836 20.7485
RightToes  -1.33073e-015 0 -3.6325e-017
Spine  59.8244 -4.32709 3.94958
Spine1  -12.7332 -1.08046 -11.9209
HEad  -44.6166 -1.98078 8.09156
LeftShoulder1  8.15923 -23.8631 -23.3901
LeftArm  -2.32884 -44.1192 -37.8156
LeftForeArm  70.2641 -6.98109 -8.13584
LeftHand  -0.244104 0.0205437 5.32207
RightShoulder  1.30565 8.86375 2.44795
RightArm  -32.4088 64.3256 38.5643
RightForeArm  12.7095 6.69245 0.318593
RightHand  -24.7705 38.1925 -59.8141
LeftUpLeg  -49.242 -2.71997 9.94831
LeftLeg  121.504 -2.11407 2.67384
LeftFoot  -11.8309 0.0479808 -5.23211
LeftToes  -7.82198e-011 2.46994e-011 -7.94165e-012
428
root  -6.97522 22.3269 0.474454 118.854 87.0843 83.1249
RightUpLeg  -32.5892 -2.14729 3.27615
RightLeg  103.75 3.43095 -10.7753
RightFoot  -28.6394 2.89345 20.1235
RightToes  -1.33073e-015 0 -3.6325e-017
Spine  60.12 -3.55468 3.41394
Spine1  -12.742 -0.553507 -12.0262
HEad  -43.998 -0.93499 7.90756
LeftShoulder1  9.45887 -24.7347 -27.2372
LeftArm  1.32103 -41.5156 -32.8168
LeftForeArm  67.523 -9.50471 -8.77261
LeftHand  -0.244104 0.0205437 5.32207
RightShoulder  1.47242 9.61146 3.21889
RightArm  -30.1782 64.2367 42.4094
RightForeArm  14.2978 5.02127 -0.21566
RightHand  -26.4537 39.2937 -61.8776
LeftUpLeg  -51.3672 -1.88761 10.819
LeftLeg  124.077 -1.47739 1.53382
LeftFoot  -12.758 0.0057292 -5.77031
LeftToes  -7.82198e-011 2.46994e-011 -7.94165e-012
429
root  -6.31382 22.27 0.497623 78.3794 87.9785 43.927
RightUpLeg  -29.0572 -0.749664 3.93403
RightLeg  101.734 3.02751 -10.8374
RightFoot  -28.5448 2.83368 19.8456
RightToes  -1.33073e-015 0 -3.6325e-017
Spine  60.3055 -3.4507 3.43044
Spine1  -11.3574 -0.129595 -12.9997
HEad  -44.8101 0.525908 7.56545
LeftShoulder1  8.97475 -23.89 -26.4846
LeftArm  7.01705 -38.1738 -32.0406
LeftForeArm  61.2802 -16.2866 -6.05004
LeftHand  -0.244104 0.0205437 5.32207
RightShoulder  1.50734 9.56448 3.55283
RightArm  -26.8301 65.5199 47.1649
RightForeArm  15.5157 3.74661 -0.467285
RightHand  -27.6804 40.0712 -63.3235
LeftUpLeg  -52.5534 -0.674688 11.6628
LeftLeg  124.881 -1.02507 0.881693
LeftFoot  -13.6322 -0.0275273 -5.42281
LeftToes  -7.82198e-011 2.46994e-011 -7.94165e-012
430
root  -5.64496 22.1263 0.409057 22.5851 87.7642 -10.5735
RightUpLeg  -25.2427 0.543018 4.84381
RightLeg  99.6404 2.56866 -10.6998
RightFoot  -28.9246 2.89758 19.8365
RightToes  -1.33073e-015 0 -3.6325e-017
Spine  60.4474 -3.14806 4.30428
Spine1  -10.8878 0.816205 -13.1919
HEad  -44.862 0.770333 6.54189
LeftShoulder1  8.86573 -23.5589 -26.4824
LeftArm  7.98848 -33.6425 -32.3817
LeftForeArm  58.6433 -24.2097 -2.49123
LeftHand  -0.244104 0.0205437 5.32207
RightShoulder  1.70865 10.3839 4.4301
RightArm  -24.4467 64.7483 48.528
RightForeArm  16.3099 3.1485 -0.136052
RightHand  -28.7125 40.6876 -64.5336
LeftUpLeg  -53.2409 0.512459 12.3907
LeftLeg  123.815 -0.577913 0.306131
LeftFoot  -12.3752 0.0305457 -5.03896
LeftToes  -7.82198e-011 2.46994e-011 -7.94165e-012
431
root  -4.94004 21.8606 0.205812 -11.3657 86.2277 -43.4518
RightUpLeg  -21.4111 1.69212 5.96468
RightLeg  97.5541 2.10113 -10.4029
RightFoot  -29.6111 3.01841 19.8538
RightToes  -1.33073e-015 0 -3.6325e-017
Spine  59.8975 -3.34878 5.93973
Spine1  -9.8511 1.75889 -13.511
HEad  -44.9166 1.17921 5.73732
LeftShoulder1  8.24517 -22.6692 -25.1999
LeftArm  -0.608688 -31.0178 -33.6347
LeftForeArm  65.719 -31.2448 -3.4284
LeftHand  -0.244104 0.0205437 5.32207
RightShoulder  1.82653 11.046 4.71131
RightArm  -22.9484 63.7657 50.4569
RightForeArm  17.6515 3.15841 -0.127919
RightHand  -29.832 41.296 -65.8724
LeftUpLeg  -53.3142 1.58213 13.0996
LeftLeg  121.967 -0.614837 0.40968
LeftFoot  -7.70804 0.227998 -5.60401
LeftToes  -7.82198e-011 2.46994e-011 -7.94165e-012
432
root  -4.21461 21.5545 -0.108178 -24.5062 83.5366 -55.7628
RightUpLeg  -17.909 3.36103 7.22514
RightLeg  95.4732 1.66818 -10.1447
RightFoot  -29.8638 3.05474 19.8102
RightToes  -1.33073e-015 0 -3.6325e-017
Spine  58.9676 -3.58243 7.83947
Spine1  -8.47477 2.93271 -14.1537
HEad  -45.0264 2.00848 4.69966
LeftShoulder1  7.76283 -21.5857 -24.6387
LeftArm  -5.68915 -31.1127 -34.0628
LeftForeArm  70.2221 -37.6561 -4.79386
LeftHand  -0.244104 0.0205437 5.32207
RightShoulder  1.90181 11.7143 4.6439
RightArm  -21.8447 62.6852 52.8412
RightForeArm  19.6308 3.48292 -0.316249
RightHand  -30.8278 41.8167 -67.0482
LeftUpLeg  -52.1947 3.02891 13.6938
LeftLeg  120.787 -1.68818 2.09285
LeftFoot  -1.58941 0.473824 -5.54592
LeftToes  -7.82198e-011 2.46994e-011 -7.94165e-012
433
root  -3.5008 21.3321 -0.497275 -26.0389 80.5083 -57.0223
RightUpLeg  -15.3329 5.69666 7.87701
RightLeg  93.3487 1.24875 -9.85443
RightFoot  -29.667 3.0217 19.8153
RightToes  -1.33073e-015 0 -3.6325e-017
Spine  58.1489 -3.37746 8.878
Spine1  -7.25952 3.99276 -14.5356
HEad  -45.4061 3.35213 2.90382
LeftShoulder1  7.44134 -20.5227 -24.6859
LeftArm  -9.81748 -33.4661 -33.2637
LeftForeArm  73.2664 -43.2513 -6.15356
LeftHand  -0.244104 0.0205437 5.32207
RightShoulder  2.01433 12.4885 4.75115
RightArm  -19.8706 61.9013 55.2123
RightForeArm  21.6517 3.62675 -0.240057
RightHand  -31.5417 42.1924 -67.8644
LeftUpLeg  -50.1284 5.15955 13.3281
LeftLeg  120.312 -3.43482 4.88545
LeftFoot  2.12715 0.433214 -3.74431
LeftToes  -7.82198e-011 2.46994e-011 -7.94165e-012
